Coordinates
version=1
nRows=23
nColumns=30
inDegrees=yes

Units are S.I. units (second, meters, Newtons, ...)
Angles are in degrees.

endheader
time	floatyaw	floatroll	floatpitch	floatx	floaty	floatz	pro_sup_l	deviation_l	flexion_l	cmc_flexion_l	cmc_abduction_l	mp_flexion_l	ip_flexion_l	2mcp_flexion_l	2mcp_abduction_l	2pm_flexion_l	2md_flexion_l	3mcp_flexion_l	3mcp_abduction_l	3pm_flexion_l	3md_flexion_l	4mcp_flexion_l	4mcp_abduction_l	4pm_flexion_l	4md_flexion_l	5mcp_flexion_l	5mcp_abduction_l	5pm_flexion_l	5md_flexion_l
-0.995000	-160.147433	-5.066637	-73.570646	0.081768	-0.182113	-0.017398	102.602863	3.576131	-0.993865	16.140020	6.023718	-25.273121	-41.183443	29.266698	7.298786	43.008656	29.131990	24.556264	4.288371	43.642530	28.351615	13.424849	-4.475421	51.185586	35.176471	1.742419	-8.595354	59.950733	41.917467
-0.985000	-160.147433	-5.066637	-73.570646	0.081765	-0.182109	-0.017385	102.590022	3.578486	-0.988741	16.146655	6.032238	-25.272133	-41.168080	29.277980	7.303183	43.024025	29.125805	24.559923	4.285222	43.676347	28.354734	13.405403	-4.474329	51.220783	35.200253	1.755099	-8.592141	59.957356	41.894888
-0.975000	-160.147433	-5.066637	-73.570646	0.081769	-0.182078	-0.017368	102.591060	3.590490	-0.961768	16.137147	6.017257	-25.272759	-41.163386	29.264138	7.303053	43.023442	29.113376	24.541950	4.281540	43.696119	28.347955	13.362999	-4.473695	51.243401	35.209156	1.766436	-8.578618	59.929987	41.843381
-0.965000	-160.147433	-5.066637	-73.570646	0.081778	-0.182010	-0.017350	102.613135	3.612224	-0.902841	16.099887	5.977907	-25.272872	-41.169365	29.203963	7.299517	43.019534	29.098617	24.485358	4.278346	43.699934	28.337352	13.289851	-4.473919	51.247762	35.196315	1.768449	-8.556262	59.863008	41.764442
-0.955000	-160.147433	-5.066637	-73.570646	0.081788	-0.181900	-0.017336	102.658134	3.639094	-0.807634	16.029349	5.927191	-25.270320	-41.178709	29.094258	7.295079	43.017006	29.085220	24.385540	4.276484	43.687912	28.327892	13.190635	-4.474834	51.225963	35.161056	1.755880	-8.530888	59.763493	41.667229
-0.945000	-160.147433	-5.066637	-73.570646	0.081787	-0.181749	-0.017336	102.722628	3.662914	-0.679122	15.930998	5.885881	-25.264232	-41.179588	28.954413	7.291891	43.011590	29.076946	24.256373	4.275831	43.661196	28.320854	13.083532	-4.475716	51.170216	35.112136	1.729427	-8.510306	59.649745	41.566156
-0.935000	-160.147433	-5.066637	-73.570646	0.081764	-0.181558	-0.017358	102.800750	3.675263	-0.526531	15.822921	5.871228	-25.256756	-41.162735	28.822068	7.289231	42.994519	29.078152	24.129118	4.274761	43.621601	28.313308	12.995043	-4.475503	51.078119	35.067236	1.698040	-8.500100	59.544102	41.475414
-0.925000	-160.147433	-5.066637	-73.570646	0.081703	-0.181327	-0.017414	102.888486	3.672000	-0.363223	15.732557	5.886888	-25.253693	-41.128731	28.741385	7.281923	42.959506	29.092938	24.044093	4.270416	43.571758	28.299627	12.951479	-4.473019	50.958265	35.046931	1.679092	-8.499957	59.464172	41.403530
-0.915000	-160.147433	-5.066637	-73.570646	0.081595	-0.181054	-0.017510	102.986339	3.656602	-0.205262	15.688524	5.919983	-25.262642	-41.089945	28.748098	7.261601	42.908146	29.122379	24.038066	4.259895	43.515183	28.274264	12.971327	-4.467114	50.832268	35.064463	1.694915	-8.503172	59.417555	41.351730
-0.905000	-160.147433	-5.066637	-73.570646	0.081439	-0.180738	-0.017647	103.097784	3.639955	-0.070748	15.709657	5.946920	-25.288865	-41.064507	28.856653	7.221072	42.850947	29.161479	24.131655	4.241893	43.456182	28.234853	13.061228	-4.456798	50.730163	35.116404	1.765570	-8.500465	59.402429	41.317406
-0.895000	-160.147433	-5.066637	-73.570646	0.081241	-0.180383	-0.017815	103.223802	3.636070	0.021607	15.795378	5.944466	-25.331252	-41.065173	29.054371	7.159477	42.803378	29.198740	24.321167	4.217982	43.399741	28.184517	13.215917	-4.441492	50.679186	35.180826	1.900473	-8.486642	59.412598	41.300218
-0.885000	-160.147433	-5.066637	-73.570646	0.081017	-0.180005	-0.018002	103.357109	3.655909	0.055918	15.922380	5.899988	-25.381315	-41.090154	29.305621	7.084662	42.778662	29.219945	24.578587	4.192759	43.350978	28.132013	13.421346	-4.421323	50.690088	35.226141	2.093552	-8.466357	59.443463	41.306276
-0.875000	-160.147433	-5.066637	-73.570646	0.080780	-0.179622	-0.018190	103.480514	3.703119	0.023735	16.050653	5.815916	-25.426558	-41.122805	29.564737	7.010821	42.780984	29.214545	24.860786	4.172573	43.313632	28.088894	13.659624	-4.397253	50.748543	35.226607	2.325027	-8.454765	59.495592	41.347134
-0.865000	-160.147433	-5.066637	-73.570646	0.080535	-0.179256	-0.018367	103.570848	3.774080	-0.072733	16.137247	5.707713	-25.456602	-41.141729	29.791616	6.952663	42.803408	29.180786	25.124141	4.163166	43.288511	28.064818	13.913301	-4.370934	50.818807	35.175078	2.568296	-8.471203	59.574234	41.433826
-0.855000	-160.147433	-5.066637	-73.570646	0.080275	-0.178928	-0.018528	103.605941	3.861356	-0.221052	16.151487	5.599088	-25.468227	-41.135210	29.962210	6.919530	42.832573	29.126587	25.337065	4.167186	43.274402	28.063961	14.166511	-4.344446	50.860547	35.085346	2.797084	-8.528130	59.685045	41.569304
-0.845000	-160.147433	-5.066637	-73.570646	0.079983	-0.178661	-0.018672	103.570820	3.957398	-0.402998	16.084630	5.518823	-25.465861	-41.109554	30.069622	6.912370	42.857874	29.066332	25.484536	4.182719	43.272468	28.084954	14.403096	-4.320145	50.850648	34.983851	2.989337	-8.621049	59.827671	41.743241
-0.835000	-160.147433	-5.066637	-73.570646	0.079641	-0.178471	-0.018807	103.461550	4.056068	-0.601096	15.950802	5.499051	-25.457170	-41.084672	30.117994	6.924333	42.879230	29.015868	25.565018	4.203634	43.290626	28.123700	14.605043	-4.300608	50.796850	34.897020	3.128409	-8.725654	59.989707	41.931543
-0.825000	-160.147433	-5.066637	-73.570646	0.079233	-0.178370	-0.018945	103.287687	4.152144	-0.804040	15.781140	5.569883	-25.447211	-41.080049	30.115566	6.943906	42.907702	28.987707	25.585317	4.221736	43.341688	28.175693	14.754826	-4.288315	50.733740	34.841300	3.203721	-8.805209	60.144233	42.100590
-0.815000	-160.147433	-5.066637	-73.570646	0.078759	-0.178358	-0.019095	103.074016	4.240572	-1.007861	15.615280	5.746773	-25.435786	-41.101963	30.071623	6.958943	42.957691	28.987260	25.558248	4.229819	43.432912	28.235159	14.841812	-4.284693	50.701955	34.819106	3.211244	-8.825631	60.253825	42.214768
-0.805000	-160.147433	-5.066637	-73.570646	0.078232	-0.178416	-0.019267	102.859484	4.316753	-1.211827	15.493006	6.015113	-25.420013	-41.141976	29.996571	6.960361	43.035518	29.010888	25.502593	4.224221	43.553254	28.292025	14.868690	-4.288792	50.722385	34.819977	3.152270	-8.771124	60.281496	42.245301
-0.795000	-160.147433	-5.066637	-73.570646	0.077682	-0.178519	-0.019461	102.689781	4.377712	-1.411391	15.446535	6.323447	-25.399516	-41.187518	29.901049	6.944673	43.132396	29.046881	25.440894	4.205835	43.669716	28.330907	14.852590	-4.296624	50.781374	34.824926	3.030010	-8.652232	60.205484	42.178531
-0.785000	-160.147433	-5.066637	-73.570646	0.077142	-0.178641	-0.019672	102.603332	4.423195	-1.593128	15.493362	6.594513	-25.379017	-41.234912	29.792835	6.914611	43.227044	29.079826	25.392845	4.179471	43.739121	28.335345	14.819268	-4.302276	50.836263	34.812589	2.846354	-8.501752	60.032312	42.022397
-0.775000	-160.147433	-5.066637	-73.570646	0.076638	-0.178766	-0.019891	102.616474	4.455986	-1.736094	15.630820	6.752672	-25.365263	-41.292521	29.675223	6.877530	43.296307	29.096877	25.368007	4.152202	43.730003	28.296150	14.794209	-4.300869	50.837466	34.766330	2.602603	-8.360349	59.802101	41.809639
